<svg width="24" height="24" viewBox="0 0 24 24" fill="#E2E2E2" xmlns="http://www.w3.org/2000/svg">
<path d="M19.9581 10.0455C19.8528 9.70742 19.5654 9.46806 19.2268 9.43609L14.6081 8.99853L12.7827 4.53909C12.648 4.21146 12.3413 4 12 4C11.6587 4 11.3519 4.21146 11.218 4.53909L9.39267 8.99853L4.77321 9.43609C4.43459 9.4687 4.14784 9.70805 4.04188 10.0455C3.93653 10.3836 4.03382 10.7544 4.28993 10.9888L7.78132 14.1834L6.75188 18.9147C6.67656 19.2626 6.80596 19.6223 7.08258 19.831C7.23126 19.9437 7.40595 20 7.58124 20C7.73188 20 7.88264 19.9582 8.01728 19.8741L12 17.3891L15.982 19.8741C16.2741 20.0563 16.6414 20.0396 16.9174 19.831C17.1941 19.6223 17.3235 19.2626 17.2481 18.9147L16.2187 14.1834L19.7101 10.9888C19.9661 10.7544 20.0635 10.3843 19.9581 10.0455V10.0455Z" />
</svg>
